<svg width="60" height="56" viewBox="0 0 60 56" fill="none" xmlns="http://www.w3.org/2000/svg">
<path d="M29.6875 11.1111C32.9667 11.1111 35.625 8.6238 35.625 5.55556C35.625 2.48731 32.9667 0 29.6875 0C26.4083 0 23.75 2.48731 23.75 5.55556C23.75 8.6238 26.4083 11.1111 29.6875 11.1111Z" fill="white" fill-opacity="0.9"/>
<path d="M29.6875 44.4445H35.625V30.5556H41.5625V19.4445C41.5625 16.3806 38.8995 13.8889 35.625 13.8889H23.75C20.4755 13.8889 17.8125 16.3806 17.8125 19.4445V30.5556H23.75V44.4445H29.6875Z" fill="white" fill-opacity="0.9"/>
<path d="M48.8241 26.0723L46.173 31.0417C50.7894 33.1945 53.4375 36.0556 53.4375 38.8889C53.4375 44.1445 43.6852 50 29.6875 50C15.6898 50 5.9375 44.1445 5.9375 38.8889C5.9375 36.0556 8.58562 33.1945 13.1991 31.0417L10.548 26.0723C3.84453 29.2 0 33.8695 0 38.8889C0 48.2334 13.0417 55.5556 29.6875 55.5556C46.3333 55.5556 59.375 48.2334 59.375 38.8889C59.375 33.8695 55.5305 29.2 48.8241 26.0723Z" fill="white" fill-opacity="0.9"/>
</svg>
