<svg width="57" height="59" viewBox="0 0 57 59" fill="none" xmlns="http://www.w3.org/2000/svg">
<path d="M13.4905 4.89797C13.2837 4.61795 13.0226 4.38745 12.7247 4.22179C12.4268 4.05612 12.0988 3.95908 11.7625 3.93711C11.4262 3.91514 11.0893 3.96874 10.7742 4.09435C10.459 4.21996 10.1729 4.41471 9.93482 4.66566L6.31261 8.48213C4.62061 10.2668 3.99706 12.7927 4.73621 15.0088C7.80402 24.1816 12.7944 32.5096 19.3372 39.3753C25.8597 46.2621 33.7715 51.515 42.4857 54.7444C44.5911 55.5224 46.9907 54.8661 48.6862 53.085L52.3084 49.2723C52.5468 49.0216 52.7318 48.7205 52.8512 48.3888C52.9705 48.0571 53.0214 47.7025 53.0005 47.3485C52.9797 46.9945 52.8875 46.6492 52.7301 46.3356C52.5727 46.022 52.3537 45.7472 52.0877 45.5295L44.006 38.9143C43.7218 38.6823 43.3913 38.5212 43.0393 38.4433C42.6873 38.3654 42.3232 38.3726 41.9742 38.4645L34.3024 40.4815C33.2784 40.7509 32.2055 40.7366 31.1883 40.44C30.1711 40.1434 29.2442 39.5746 28.4978 38.789L19.8942 29.729C19.1472 28.9437 18.6062 27.9682 18.3238 26.8974C18.0414 25.8267 18.0272 24.6972 18.2827 23.6189L20.2024 15.5435C20.2897 15.1762 20.2966 14.7929 20.2225 14.4224C20.1485 14.0519 19.9955 13.704 19.7751 13.4048L13.4905 4.89797ZM7.28998 1.88535C7.903 1.23987 8.63947 0.73905 9.45048 0.416147C10.2615 0.0932438 11.1285 -0.0443531 11.9939 0.0124931C12.8593 0.0693392 13.7033 0.319328 14.4699 0.745859C15.2365 1.17239 15.9081 1.7657 16.4401 2.4864L22.7247 10.9896C23.8772 12.5493 24.2835 14.5811 23.8281 16.4986L21.9119 24.574C21.8129 24.9923 21.8182 25.4304 21.9275 25.8458C22.0367 26.2613 22.2462 26.6399 22.5355 26.945L31.1426 36.005C31.4328 36.3101 31.7931 36.5309 32.1885 36.646C32.5838 36.761 33.0008 36.7663 33.3986 36.6613L41.0669 34.6443C41.9659 34.4077 42.9042 34.3893 43.8108 34.5906C44.7175 34.7918 45.5689 35.2074 46.3006 35.8058L54.3787 42.421C57.2828 44.7994 57.549 49.3165 54.9497 52.0489L51.3275 55.8617C48.7352 58.5903 44.8608 59.7887 41.2491 58.4502C32.005 55.0266 23.6119 49.456 16.6923 42.1519C9.75367 34.8693 4.4616 26.0359 1.20859 16.3068C-0.0595385 12.5088 1.07897 8.42682 3.67127 5.69814L7.29348 1.88535H7.28998Z" fill="white" fill-opacity="0.6"/>
</svg>
